<?xml version="1.0" encoding="UTF-8"?>
<svg width="534" height="60" viewBox="0 0 534 60" fill="#FFFFFF" xmlns="http://www.w3.org/2000/svg"><path d="M91.2947 1L71.7592 59H82.3974L86.4592 45.66H107.736L111.991 59H122.822L103.48 1H91.2947ZM89.1671 36.96L97.0974 10.0867L104.834 36.96H89.1671ZM28.4329 29.2267C33.2684 27.4867 36.9434 22.8467 36.9434 16.66C36.9434 7.57333 30.5605 1 19.5355 1H0V59H21.0829C31.7211 59 38.6842 52.2333 38.6842 42.9533C38.6842 35.9933 34.4289 30.7733 28.4329 29.2267ZM9.47763 9.31333H17.9882C23.7908 9.31333 27.2724 12.4067 27.2724 17.4333C27.2724 22.2667 23.9842 25.5533 18.375 25.5533H9.47763V9.31333ZM19.3421 50.6867H9.47763V33.8667H19.5355C25.5316 33.8667 28.8197 37.3467 28.8197 42.3733C28.8197 47.4 25.1447 50.6867 19.3421 50.6867ZM51.6434 59H60.9276V19.1733H51.6434V59ZM140.424 45.66C136.749 45.66 133.847 48.7533 133.847 52.4267C133.847 56.1 136.749 59 140.424 59C144.099 59 147 56.1 147 52.4267C147 48.7533 144.099 45.66 140.424 45.66Z" class="letter-bia"></path></svg>
