<svg width="15" height="15" viewBox="0 0 15 15" fill="none" xmlns="http://www.w3.org/2000/svg">
<path d="M4.34363 0.0290137C1.94015 0.0290137 0 1.97292 0 4.38104V10.648C0 13.0561 1.94015 15 4.34363 15H10.6564C13.0598 15 15 13.0561 15 10.648V4.35203C15 1.94391 13.0598 0 10.6564 0L4.34363 0.0290137ZM4.34363 1.30561H10.6564C12.3649 1.30561 13.6969 2.66925 13.6969 4.35203V10.619C13.6969 12.3308 12.3359 13.6654 10.6564 13.6654H4.34363C2.63513 13.6654 1.30309 12.3017 1.30309 10.619V4.35203C1.30309 2.66925 2.63513 1.30561 4.34363 1.30561ZM11.5251 2.58221C11.0328 2.58221 10.6274 2.9884 10.6274 3.48163C10.6274 3.97486 11.0328 4.38104 11.5251 4.38104C12.0174 4.38104 12.4228 3.97486 12.4228 3.48163C12.4228 2.9884 12.0174 2.58221 11.5251 2.58221ZM7.5 3.65571C5.3861 3.65571 3.64865 5.39652 3.64865 7.51451C3.64865 9.6325 5.3861 11.3733 7.5 11.3733C9.6139 11.3733 11.3513 9.6325 11.3513 7.51451C11.3513 5.39652 9.6139 3.65571 7.5 3.65571ZM7.5 4.9323C8.91892 4.9323 10.0483 6.06383 10.0483 7.48549C10.0483 8.90716 8.91892 10.0387 7.5 10.0387C6.08108 10.0387 4.95174 8.90716 4.95174 7.48549C4.92278 6.06383 6.08108 4.9323 7.5 4.9323Z" fill="white"/>
</svg>
