<?xml version="1.0" encoding="UTF-8"?>
<svg width="534" height="60" viewBox="0 0 534 60" fill="#FFFFFF" xmlns="http://www.w3.org/2000/svg"><g class="powered-by"><path d="M197.113 15.2509V0.950928H203.713C206.773 0.950928 209.133 2.05093 209.133 5.21093C209.133 8.41093 206.613 9.69093 203.553 9.69093H199.073V15.2509H197.113ZM199.073 8.01093H203.713C205.913 8.01093 207.173 7.15093 207.173 5.27093C207.173 3.47093 206.013 2.67093 203.833 2.67093H199.073V8.01093Z"></path><path d="M215.223 15.4909C211.963 15.4909 209.583 13.2509 209.583 10.1709C209.583 7.07093 211.983 4.81093 215.263 4.81093C218.483 4.81093 220.863 7.09093 220.863 10.1909C220.863 13.2509 218.483 15.4909 215.223 15.4909ZM215.283 13.8909C217.483 13.8909 219.003 12.3909 219.003 10.1709C219.003 7.95093 217.463 6.41093 215.243 6.41093C213.003 6.41093 211.463 7.95093 211.463 10.1309C211.463 12.3709 213.023 13.8909 215.283 13.8909Z"></path><path d="M224.926 15.2509L221.566 5.09093H223.546L225.986 13.3509H226.026L228.726 5.09093H230.806L233.506 13.3509H233.546L236.026 5.09093H237.926L234.586 15.2509H232.466L229.766 7.09093H229.726L227.046 15.2509H224.926Z"></path><path d="M244.366 15.4909C240.946 15.4909 238.626 13.3309 238.626 10.1509C238.626 7.01093 240.906 4.83093 244.186 4.83093C247.386 4.83093 249.486 6.93093 249.486 10.1109V10.6909H240.506C240.646 12.6309 242.246 13.9309 244.386 13.9309C245.886 13.9309 246.966 13.2909 247.346 12.2109L248.986 12.6709C248.446 14.4309 246.726 15.4909 244.366 15.4909ZM240.506 9.27093H247.526C247.386 7.43093 246.126 6.37093 244.106 6.37093C242.086 6.37093 240.706 7.51093 240.506 9.27093Z"></path><path d="M251.427 15.2509V5.09093H253.127V6.65093C253.527 5.75093 254.387 4.89093 255.927 4.89093C256.407 4.89093 257.007 4.95093 257.447 5.11093L257.347 6.75093C256.907 6.59093 256.307 6.55093 255.867 6.55093C254.307 6.55093 253.247 7.67093 253.247 10.1509V15.2509H251.427Z"></path><path d="M263.702 15.4909C260.282 15.4909 257.962 13.3309 257.962 10.1509C257.962 7.01093 260.242 4.83093 263.522 4.83093C266.722 4.83093 268.822 6.93093 268.822 10.1109V10.6909H259.842C259.982 12.6309 261.582 13.9309 263.722 13.9309C265.222 13.9309 266.302 13.2909 266.682 12.2109L268.322 12.6709C267.782 14.4309 266.062 15.4909 263.702 15.4909ZM259.842 9.27093H266.862C266.722 7.43093 265.462 6.37093 263.442 6.37093C261.422 6.37093 260.042 7.51093 259.842 9.27093Z"></path><path d="M275.583 15.4909C272.803 15.4909 270.423 13.4909 270.423 10.1709C270.423 6.81093 272.783 4.81093 275.583 4.81093C277.323 4.81093 278.723 5.61093 279.463 6.59093V0.950928H281.303V15.2509H279.603V13.4509C278.923 14.6309 277.363 15.4909 275.583 15.4909ZM275.823 13.9109C277.863 13.9109 279.483 12.5509 279.483 10.1309C279.483 7.65093 277.803 6.39093 275.803 6.39093C273.743 6.39093 272.303 7.81093 272.303 10.1509C272.303 12.4709 273.723 13.9109 275.823 13.9109Z"></path><path d="M294.842 15.4909C293.062 15.4909 291.502 14.6309 290.822 13.4509V15.2509H289.122V0.950928H290.942V6.65093C291.702 5.65093 293.102 4.83093 294.862 4.83093C297.622 4.83093 299.982 6.81093 299.982 10.1509C299.982 13.4909 297.622 15.4909 294.842 15.4909ZM294.582 13.9109C296.682 13.9109 298.122 12.4509 298.122 10.1509C298.122 7.83093 296.662 6.41093 294.582 6.41093C292.622 6.41093 290.922 7.65093 290.922 10.1309C290.922 12.5509 292.562 13.9109 294.582 13.9109Z"></path><path d="M302.871 19.5509C302.071 19.5509 301.351 19.3709 300.891 19.1109L301.351 17.6709C301.691 17.8709 302.171 18.0309 302.711 18.0309C303.491 18.0309 304.011 17.5309 304.471 16.5509L305.291 14.7909L300.711 5.09093H302.731L306.231 12.6909L309.771 5.09093H311.771L306.131 16.8909C305.311 18.5709 304.311 19.5509 302.871 19.5509Z"></path><path d="M197 58.989H205.27V47.1029H223.202V40.909H205.27V34.8633H224.251V29.0001H197V58.989Z"></path><path d="M337.419 38.8443C337.419 40.9204 337.442 43.1904 337.476 45.198C337.488 46.544 337.511 47.7189 337.511 48.6201C336.906 47.8558 336.244 47.0231 335.56 46.1562C334.282 44.5364 332.845 42.6885 331.385 40.9318L321.701 29.0686L321.655 29.0115H313.214V59.0118H321.347V49.1562C321.347 46.1105 321.347 42.3577 321.233 39.2436C323.868 42.6428 325.522 44.6847 328.431 48.1638L337.203 59.0004H345.564V29.0001H337.419V38.8443Z"></path><path d="M352.693 35.2397H363.655V58.989H371.96V35.2397H382.83V29.0001H352.693V35.2397Z"></path><path d="M437.413 38.023C437.413 34.5895 435.941 32.1713 432.918 30.6313C430.215 29.2625 427.032 29.0001 422.104 29.0001H406.716V59.0004H414.987V47.7417H422.241L429.964 59.0004H439.523L430.614 46.4071C435.006 45.0953 437.413 42.1295 437.413 38.023ZM427.431 41.1941C426.553 41.7645 425.344 41.9926 423.245 41.9926H414.987V34.7378H422.937C424.899 34.7378 426.291 34.9431 427.192 35.3766C428.39 35.9584 428.971 36.9051 428.971 38.2854C428.971 39.62 428.47 40.5782 427.431 41.1941Z"></path><path d="M475.637 32.6731C472.284 29.9012 467.584 28.4297 462.04 28.4297C450.816 28.4297 443.276 34.7035 443.276 44.0344C443.276 48.6656 445.021 52.5782 448.318 55.3272C451.637 58.0991 456.382 59.5592 462.052 59.5592C467.709 59.5592 472.455 58.0991 475.785 55.3272C479.082 52.5782 480.827 48.677 480.827 44.0344C480.816 39.4032 479.025 35.4678 475.637 32.6731ZM462.04 53.7417C455.686 53.7417 451.728 50.023 451.728 44.0458C451.728 38.1256 455.778 34.3043 462.04 34.3043C468.303 34.3043 472.352 38.1256 472.352 44.0458C472.352 49.9318 468.303 53.7417 462.04 53.7417Z"></path><path d="M524.767 29.0001L520.809 43.8291C520.17 46.3957 519.645 48.6315 519.177 50.6049L519.155 50.7189C518.892 49.6239 518.47 48.198 518.025 46.7037C517.763 45.8025 517.489 44.8786 517.238 44.0003L512.835 29.1142L512.801 29.0001H504.44L500.128 43.909L498.223 50.9357L498.166 50.6733C497.767 48.7227 497.231 46.0421 496.637 43.8177L492.816 29.0001H484.01L493.021 58.8863L493.056 59.0004H502.683L506.687 45.1866C507.371 42.8253 508.09 40.042 508.58 38.0572C509.117 40.2702 509.915 43.2246 510.52 45.3577L514.569 59.0004H524.105L533.219 29.2169L533.276 29.0001H524.767Z"></path><path d="M262.909 38.023C262.909 34.5895 261.438 32.1713 258.415 30.6313C255.711 29.2625 252.54 29.0001 247.613 29.0001H232.213V59.0004H240.483V47.7417H247.738L255.461 59.0004H265.02L256.111 46.4071C260.502 45.0953 262.909 42.1295 262.909 38.023ZM252.928 41.1941C252.05 41.7645 250.841 41.9926 248.742 41.9926H240.483V34.7378H248.434C250.396 34.7378 251.787 34.9431 252.689 35.3766C253.886 35.9584 254.468 36.9051 254.468 38.2854C254.468 39.62 253.966 40.5782 252.928 41.1941Z"></path><path d="M301.145 32.6731C297.78 29.9012 293.081 28.4297 287.548 28.4297C276.324 28.4297 268.772 34.7035 268.772 44.0344C268.772 48.6656 270.518 52.5782 273.814 55.3272C277.134 58.0991 281.879 59.5592 287.548 59.5592C293.206 59.5592 297.951 58.0991 301.282 55.3272C304.579 52.5782 306.324 48.677 306.324 44.0344C306.313 39.4032 304.533 35.4678 301.145 32.6731ZM287.548 53.7417C281.195 53.7417 277.236 50.023 277.236 44.0458C277.236 38.1256 281.286 34.3043 287.548 34.3043C293.811 34.3043 297.86 38.1256 297.86 44.0458C297.849 49.9318 293.811 53.7417 287.548 53.7417Z"></path></g><rect x="166" y="1" width="2" height="58" class="vertical-line"></rect><path d="M91.2947 1L71.7592 59H82.3974L86.4592 45.66H107.736L111.991 59H122.822L103.48 1H91.2947ZM89.1671 36.96L97.0974 10.0867L104.834 36.96H89.1671ZM28.4329 29.2267C33.2684 27.4867 36.9434 22.8467 36.9434 16.66C36.9434 7.57333 30.5605 1 19.5355 1H0V59H21.0829C31.7211 59 38.6842 52.2333 38.6842 42.9533C38.6842 35.9933 34.4289 30.7733 28.4329 29.2267ZM9.47763 9.31333H17.9882C23.7908 9.31333 27.2724 12.4067 27.2724 17.4333C27.2724 22.2667 23.9842 25.5533 18.375 25.5533H9.47763V9.31333ZM19.3421 50.6867H9.47763V33.8667H19.5355C25.5316 33.8667 28.8197 37.3467 28.8197 42.3733C28.8197 47.4 25.1447 50.6867 19.3421 50.6867ZM51.6434 59H60.9276V19.1733H51.6434V59ZM140.424 45.66C136.749 45.66 133.847 48.7533 133.847 52.4267C133.847 56.1 136.749 59 140.424 59C144.099 59 147 56.1 147 52.4267C147 48.7533 144.099 45.66 140.424 45.66Z" class="letter-bia"></path></svg>