<svg width="15" height="16" viewBox="0 0 15 16" fill="none" xmlns="http://www.w3.org/2000/svg">
<path d="M1.11985 0.029541C0.500988 0.029541 0 0.498292 0 1.11353V13.9456C0 14.5315 0.500988 15.0295 1.11985 15.0295H13.8802C14.499 15.0295 15 14.5608 15 13.9456V1.11353C15 0.527589 14.499 0.029541 13.8802 0.029541H1.11985ZM3.41847 2.54907C4.18468 2.54907 4.65619 3.04712 4.68566 3.72095C4.68566 4.36548 4.18468 4.89282 3.41847 4.89282C2.65226 4.89282 2.18075 4.36548 2.18075 3.72095C2.15128 3.04712 2.65226 2.54907 3.41847 2.54907ZM10.1081 5.65454C11.5815 5.65454 12.7014 6.62134 12.7014 8.70142V12.5686H10.4322V8.96509C10.4322 8.05689 10.1081 7.44165 9.2829 7.44165C8.66404 7.44165 8.28094 7.85181 8.13359 8.26196C8.07465 8.40845 8.07466 8.61353 8.07466 8.81861V12.5979H5.8055C5.8055 12.5979 5.83497 6.47485 5.8055 5.83032H8.07466V6.79712C8.36936 6.29907 8.89981 5.65454 10.1081 5.65454ZM8.07466 6.76782C8.04519 6.76782 8.04519 6.79712 8.07466 6.76782V6.76782ZM2.29863 5.80103H4.56778V12.5686H2.29863V5.80103Z" fill="white"/>
</svg>
